<?xml version="1.0" standalone="no"?>
<!DOCTYPE svg PUBLIC "-//W3C//DTD SVG 20010904//EN"
 "http://www.w3.org/TR/2001/REC-SVG-20010904/DTD/svg10.dtd">
<svg version="1.0" xmlns="http://www.w3.org/2000/svg"
 width="512.000000pt" height="512.000000pt" viewBox="0 0 512.000000 512.000000"
 preserveAspectRatio="xMidYMid meet">
<metadata>
Created by potrace 1.14, written by Peter Selinger 2001-2017
</metadata>
<g transform="translate(0.000000,512.000000) scale(0.100000,-0.100000)"
fill="#000000" stroke="none">
<path d="M2340 4399 c-258 -33 -533 -132 -737 -265 -435 -282 -723 -699 -829
-1198 -35 -166 -44 -466 -20 -636 76 -517 344 -958 771 -1265 112 -81 336
-194 475 -239 635 -209 1323 -52 1812 413 391 372 595 875 575 1421 -10 265
-65 492 -177 728 -272 570 -785 949 -1403 1037 -110 16 -360 18 -467 4z m105
-987 c-15 -15 -499 49 -520 69 -5 6 -4 23 4 47 27 77 124 269 176 347 70 105
192 222 276 264 l64 32 3 -377 c1 -207 0 -379 -3 -382z m345 703 c143 -90 285
-287 385 -533 31 -76 36 -95 25 -102 -30 -19 -307 -59 -430 -62 l-95 -3 -3
365 c-1 201 0 371 3 378 6 15 47 0 115 -43z m-840 -59 c0 -3 -18 -32 -41 -66
-62 -94 -117 -201 -170 -329 -36 -90 -51 -115 -64 -113 -19 4 -243 98 -264
111 -20 13 2 40 96 123 102 90 203 159 327 224 96 51 116 59 116 50z m1303
-27 c152 -76 293 -174 404 -282 40 -38 70 -74 67 -79 -8 -12 -136 -70 -224
-102 l-68 -25 -27 77 c-36 99 -131 288 -189 375 -25 37 -41 67 -36 67 6 0 39
-14 73 -31z m-1752 -659 c66 -26 122 -49 124 -52 2 -2 -7 -56 -20 -121 -22
-107 -51 -352 -57 -472 l-3 -50 -292 -3 c-214 -2 -293 1 -293 9 0 6 7 58 15
115 30 200 101 405 201 578 72 125 64 121 141 79 36 -20 119 -57 184 -83z
m2483 -60 c97 -190 158 -387 173 -565 l6 -75 -290 0 -291 0 -7 108 c-9 141
-30 302 -56 431 -11 57 -17 107 -12 111 4 4 51 24 103 44 52 20 133 57 180 81
l85 44 22 -27 c13 -15 52 -83 87 -152z m-1975 -81 c57 -10 165 -24 240 -30 75
-6 151 -13 169 -15 l32 -5 0 -254 0 -255 -341 0 -342 0 7 103 c9 129 21 224
47 357 27 139 24 133 57 125 15 -4 74 -16 131 -26z m1275 14 c21 -77 59 -334
71 -491 l6 -82 -343 2 -343 3 -3 252 -2 252 42 5 c24 3 84 8 133 11 98 7 332
40 380 54 45 14 53 13 59 -6z m-1737 -838 c9 -140 28 -309 49 -432 13 -78 24
-146 24 -151 0 -5 -39 -23 -87 -42 -49 -18 -132 -55 -185 -81 -54 -27 -102
-49 -107 -49 -23 0 -138 217 -185 348 -49 138 -106 417 -91 443 4 6 116 8 293
7 l287 -3 2 -40z m903 -205 l0 -250 -63 0 c-83 0 -296 -25 -431 -50 -59 -12
-110 -19 -112 -17 -9 8 -44 216 -59 342 -16 140 -19 208 -8 218 3 4 156 7 340
7 l333 0 0 -250z m902 170 c-3 -100 -19 -230 -44 -373 l-22 -119 -30 6 c-226
41 -388 61 -536 69 l-45 2 -3 235 c-1 129 0 240 3 247 3 11 75 13 342 11 l338
-3 -3 -75z m808 34 c0 -26 -11 -102 -25 -169 -39 -192 -109 -374 -200 -521
l-45 -71 -92 47 c-51 26 -138 65 -193 86 -55 21 -101 39 -102 39 -2 1 6 42 16
91 22 100 47 291 57 434 4 52 8 98 11 103 2 4 132 7 289 7 l284 0 0 -46z
m-1710 -1065 l0 -390 -22 6 c-119 36 -272 189 -383 383 -45 80 -135 284 -135
309 0 23 314 73 508 82 l32 1 0 -391z m420 375 c71 -6 340 -51 348 -58 7 -8
-71 -195 -120 -286 -65 -123 -131 -212 -218 -294 -61 -58 -170 -126 -200 -126
-12 0 -15 762 -3 774 4 4 33 5 63 2 30 -3 89 -8 130 -12z m-1145 -221 c48
-124 120 -268 179 -358 25 -38 41 -71 36 -73 -17 -6 -202 97 -298 165 -52 37
-133 104 -180 149 l-87 81 65 33 c73 37 219 99 236 100 6 0 28 -44 49 -97z
m1777 78 c79 -27 238 -102 238 -112 0 -16 -132 -139 -217 -202 -132 -100 -370
-233 -347 -195 4 7 24 38 44 68 56 83 123 214 164 320 50 128 55 140 59 140 2
0 29 -9 59 -19z"/>
</g>
</svg>
